<svg version="1.1" xmlns="http://www.w3.org/2000/svg" xmlns:xlink="http://www.w3.org/1999/xlink" width="16px" height="16px" viewBox="0,0,256,256"><g fill="#ffffff" fill-rule="evenodd" stroke="none" stroke-width="1" stroke-linecap="butt" stroke-linejoin="miter" stroke-miterlimit="10" stroke-dasharray="" stroke-dashoffset="0"  style="mix-blend-mode: normal"><g transform="scale(16,16)"><path d="M8,1.25c-0.414,0 -0.75,0.336 -0.75,0.75v6.18945l-1.7207,-1.71875c-0.292,-0.293 -0.76659,-0.293 -1.05859,0c-0.293,0.292 -0.293,0.76659 0,1.05859l3,3c0.293,0.293 0.76559,0.293 1.05859,0l3,-3c0.293,-0.292 0.293,-0.76659 0,-1.05859c-0.292,-0.293 -0.76659,-0.293 -1.05859,0l-1.7207,1.71875v-6.18945c0,-0.414 -0.336,-0.75 -0.75,-0.75zM2,7.25c-0.414,0 -0.75,0.336 -0.75,0.75c0,3.725 3.025,6.75 6.75,6.75c3.725,0 6.75,-3.025 6.75,-6.75c0,-0.414 -0.336,-0.75 -0.75,-0.75c-0.414,0 -0.75,0.336 -0.75,0.75c0,2.898 -2.352,5.25 -5.25,5.25c-2.898,0 -5.25,-2.352 -5.25,-5.25c0,-0.414 -0.336,-0.75 -0.75,-0.75z"></path></g></g></svg>