<svg xmlns="http://www.w3.org/2000/svg" xmlns:xlink="http://www.w3.org/1999/xlink" viewBox="0,0,256,256" width="48px" height="48px"><g fill="#ffffff" fill-rule="nonzero" stroke="none" stroke-width="1" stroke-linecap="butt" stroke-linejoin="miter" stroke-miterlimit="10" stroke-dasharray="" stroke-dashoffset="0"  style="mix-blend-mode: normal"><g transform="scale(10.66667,10.66667)"><circle cx="12" cy="12" r="10" opacity="0.35"></circle><path d="M17,7.625c0,-0.475 -0.032,-1.058 -0.25,-1.625c0,0 -1.426,0.01 -2.771,1.284c-0.621,-0.181 -1.285,-0.284 -1.979,-0.284c-0.694,0 -1.358,0.103 -1.979,0.284c-1.345,-1.274 -2.771,-1.284 -2.771,-1.284c-0.217,0.567 -0.25,1.15 -0.25,1.625c0,0.719 0.128,1.16 0.205,1.378c-0.753,0.836 -1.205,1.871 -1.205,2.997c0,2.186 1.655,3.531 4,4c-0.527,0.463 -0.85,1.11 -0.953,1.836c-0.223,0.108 -0.547,0.164 -0.922,0.164c-0.301,0 -0.886,-0.142 -1.431,-0.991c-0.22,-0.344 -0.694,-1.009 -1.319,-1.009c-0.122,0 -0.379,-0.008 -0.375,0.181c0.002,0.09 0.14,0.091 0.435,0.354c0.247,0.221 0.477,0.583 0.565,0.965c0.145,0.627 0.726,1.875 2.125,1.875c0.5,0 0.875,-0.125 0.875,-0.125v2.291c0.947,0.297 1.955,0.459 3,0.459c1.045,0 2.053,-0.162 3,-0.459v-3.291c0,-0.899 -0.374,-1.7 -1,-2.25c2.345,-0.469 4,-1.814 4,-4c0,-1.106 -0.436,-2.125 -1.166,-2.953c0.063,-0.195 0.166,-0.647 0.166,-1.422z"></path></g></g></svg>